<svg xmlns="http://www.w3.org/2000/svg" width="40.257" height="24.389" viewBox="0 0 40.257 24.389">
  <g id="Group_4_Copy_9" data-name="Group 4 Copy 9" transform="translate(40.847 -0.077) rotate(180)">
    <g id="Group_3_Copy" data-name="Group 3 Copy" transform="translate(0.272 0)">
      <path id="Path_2" data-name="Path 2" d="M-6.175,24.362H-34.592s-5.625-1.5-5.625-6.859,5.625-6.72,5.625-6.72S-35.046,2.74-28.741.63c8.632-2.889,12.158,5.093,12.158,5.093C-10,3.915-7.91,10.783-7.91,10.783-2.051,10.451,0,14.8,0,17.026,0,23.159-4.167,23.945-6.175,24.362Z" transform="translate(0.317 -0.102) rotate(180)" fill="#fff"/>
      <path id="Path_3" data-name="Path 3" d="M0,0S-8.871,1.5-8.634,10.891c0,.246-5.556.246-5.556,6.493a6.92,6.92,0,0,0,5.556,7s-5.459-2.763-3.106-8.356c1.664-3.945,6.511-3.382,6.511-3.382-1.544-2.239-2.481-3.97-.949-7.6S0,0,0,0Z" transform="translate(26.384 -0.077) rotate(180)" fill="#eee"/>
      <path id="Path_4" data-name="Path 4" d="M-10.706,1.073c-.235-.311,4.446-2.251,7.584,0S0,7.474,0,7.474-3.122.062-10.706,1.073Z" transform="translate(8.076 -5.67) rotate(180)" fill="#eee"/>
      <path id="Path_4-2" data-name="Path 4" d="M-5.794.581c-.127-.169,2.406-1.218,4.1,0A4.588,4.588,0,0,1,0,4.044S-1.69.033-5.794.581Z" transform="matrix(-0.883, 0.469, -0.469, -0.883, 21.622, -14.833)" fill="#eee"/>
      <path id="Path_4_Copy" data-name="Path 4 Copy" d="M-3.643.365a2.465,2.465,0,0,1,2.581,0A2.885,2.885,0,0,1,0,2.543,3.612,3.612,0,0,0-3.643.365Z" transform="matrix(-0.883, 0.469, -0.469, -0.883, 18.263, -14.617)" fill="#eee"/>
    </g>
  </g>
</svg>
