<svg xmlns="http://www.w3.org/2000/svg" width="33.129" height="20.07" viewBox="0 0 33.129 20.07">
  <g id="Group_4_Copy_10" data-name="Group 4 Copy 10" transform="translate(-0.485 -0.063)">
    <g id="Group_3_Copy" data-name="Group 3 Copy" transform="translate(0.224 0)">
      <path id="Path_2" data-name="Path 2" d="M5.082,20.048H28.467S33.1,18.815,33.1,14.4s-4.629-5.53-4.629-5.53S28.84,2.255,23.651.518c-7.1-2.377-10,4.191-10,4.191C8.232,3.221,6.509,8.873,6.509,8.873,1.688,8.6,0,12.178,0,14.011,0,19.058,3.429,19.705,5.082,20.048Z" transform="translate(0.261 0.084)" fill="#fff"/>
      <path id="Path_3" data-name="Path 3" d="M0,0S7.3,1.237,7.105,8.962c0,.2,4.572.2,4.572,5.343A5.7,5.7,0,0,1,7.105,20.07S11.6,17.8,9.662,13.194C8.293,9.947,4.3,10.411,4.3,10.411c1.271-1.843,2.042-3.267.781-6.255S0,0,0,0Z" transform="translate(21.712 0.063)" fill="#eee"/>
      <path id="Path_4" data-name="Path 4" d="M8.81.883C9,.627,5.152-.969,2.569.883A6.976,6.976,0,0,0,0,6.15S2.569.051,8.81.883Z" transform="translate(6.646 4.666)" fill="#eee"/>
      <path id="Path_4-2" data-name="Path 4" d="M4.768.478a3.225,3.225,0,0,0-3.377,0A3.775,3.775,0,0,0,0,3.328S1.39.027,4.768.478Z" transform="matrix(0.883, 0.469, -0.469, 0.883, 17.71, 12.186)" fill="#eee"/>
      <path id="Path_4_Copy" data-name="Path 4 Copy" d="M3,.3A2.028,2.028,0,0,0,.874.3,2.374,2.374,0,0,0,0,2.093,2.973,2.973,0,0,1,3,.3Z" transform="matrix(0.883, 0.469, -0.469, 0.883, 14.946, 12.008)" fill="#eee"/>
    </g>
  </g>
</svg>
