<svg xmlns="http://www.w3.org/2000/svg" width="39.521" height="23.942" viewBox="0 0 39.521 23.942">
  <g id="Group_4_Copy_12" data-name="Group 4 Copy 12" transform="translate(-0.579 -0.076)" opacity="0.738">
    <g id="Group_3_Copy" data-name="Group 3 Copy" transform="translate(0.267 0)">
      <path id="Path_2" data-name="Path 2" d="M6.062,23.916h27.9s5.522-1.471,5.522-6.734-5.522-6.6-5.522-6.6S34.4,2.69,28.215.618c-8.474-2.836-11.935,5-11.935,5-6.459-1.776-8.514,4.967-8.514,4.967C2.014,10.259,0,14.527,0,16.714,0,22.735,4.091,23.507,6.062,23.916Z" transform="translate(0.311 0.1)" fill="#fff"/>
      <path id="Path_3" data-name="Path 3" d="M0,0S8.708,1.476,8.476,10.691c0,.241,5.455.241,5.455,6.374a6.793,6.793,0,0,1-5.455,6.876s5.359-2.712,3.05-8.2c-1.633-3.873-6.391-3.32-6.391-3.32,1.516-2.2,2.436-3.9.932-7.461S0,0,0,0Z" transform="translate(25.901 0.076)" fill="#eee"/>
      <path id="Path_4" data-name="Path 4" d="M10.51,1.053c.23-.306-4.364-2.209-7.445,0S0,7.337,0,7.337,3.065.06,10.51,1.053Z" transform="translate(7.929 5.566)" fill="#eee"/>
      <path id="Path_4-2" data-name="Path 4" d="M5.687.57C5.812.4,3.326-.626,1.659.57A4.5,4.5,0,0,0,0,3.97S1.659.033,5.687.57Z" transform="matrix(0.883, 0.469, -0.469, 0.883, 21.218, 14.559)" fill="#eee"/>
      <path id="Path_4_Copy" data-name="Path 4 Copy" d="M3.577.359a2.419,2.419,0,0,0-2.534,0A2.832,2.832,0,0,0,0,2.5,3.546,3.546,0,0,1,3.577.359Z" transform="matrix(0.883, 0.469, -0.469, 0.883, 17.921, 14.348)" fill="#eee"/>
    </g>
  </g>
</svg>
