<svg xmlns="http://www.w3.org/2000/svg" width="70.565" height="42.75" viewBox="0 0 70.565 42.75">
  <g id="Group_4_Copy_7" data-name="Group 4 Copy 7" transform="translate(-1.033 -0.135)">
    <g id="Group_3_Copy" data-name="Group 3 Copy" transform="translate(0.477 0)">
      <path id="Path_2" data-name="Path 2" d="M10.824,42.7H60.636s9.859-2.626,9.859-12.023S60.636,18.9,60.636,18.9s.8-14.1-10.258-17.8c-15.131-5.063-21.31,8.928-21.31,8.928-11.533-3.17-15.2,8.868-15.2,8.868C3.6,18.319,0,25.939,0,29.844,0,40.594,7.3,41.973,10.824,42.7Z" transform="translate(0.555 0.179)" fill="#fff"/>
      <path id="Path_3" data-name="Path 3" d="M0,0S15.549,2.635,15.135,19.09c0,.431,9.739.431,9.739,11.381a12.13,12.13,0,0,1-9.739,12.278S24.7,37.907,20.58,28.1c-2.916-6.915-11.412-5.928-11.412-5.928,2.707-3.925,4.35-6.958,1.664-13.323S0,0,0,0Z" transform="translate(46.247 0.135)" fill="#eee"/>
      <path id="Path_4" data-name="Path 4" d="M18.766,1.881c.412-.546-7.793-3.945-13.293,0S0,13.1,0,13.1,5.473.108,18.766,1.881Z" transform="translate(14.157 9.939)" fill="#eee"/>
      <path id="Path_4-2" data-name="Path 4" d="M10.155,1.018c.223-.3-4.217-2.135-7.194,0S0,7.089,0,7.089,2.961.058,10.155,1.018Z" transform="matrix(0.883, 0.469, -0.469, 0.883, 38.254, 26.088)" fill="#eee"/>
      <path id="Path_4_Copy" data-name="Path 4 Copy" d="M6.386.64C6.526.454,3.734-.7,1.862.64A5.057,5.057,0,0,0,0,4.458S1.862.037,6.386.64Z" transform="matrix(0.883, 0.469, -0.469, 0.883, 32.366, 25.71)" fill="#eee"/>
    </g>
  </g>
</svg>
