<svg xmlns="http://www.w3.org/2000/svg" width="98.829" height="59.872" viewBox="0 0 98.829 59.872">
  <g id="Group_4_Copy_8" data-name="Group 4 Copy 8" transform="translate(100.275 -0.189) rotate(180)" opacity="0.39">
    <g id="Group_3_Copy" data-name="Group 3 Copy" transform="translate(0.669 0)">
      <path id="Path_2" data-name="Path 2" d="M-15.159,59.808H-84.922S-98.73,56.129-98.73,42.969s13.808-16.5,13.808-16.5S-86.036,6.727-70.556,1.547c21.191-7.091,29.846,12.5,29.846,12.5,16.152-4.44,21.292,12.42,21.292,12.42C-5.036,25.656,0,36.329,0,41.8,0,56.853-10.23,58.784-15.159,59.808Z" transform="translate(0.777 -0.25) rotate(180)" fill="#fff"/>
      <path id="Path_3" data-name="Path 3" d="M0,0S-21.777,3.69-21.2,26.736c0,.6-13.64.6-13.64,15.94,0,13.663,12.158,17.2,13.64,17.2,0,0-13.4-6.782-7.626-20.513,4.084-9.684,15.983-8.3,15.983-8.3-3.791-5.5-6.092-9.745-2.331-18.659S0,0,0,0Z" transform="translate(64.77 -0.189) rotate(180)" fill="#eee"/>
      <path id="Path_4" data-name="Path 4" d="M-26.282,2.634c-.576-.764,10.914-5.525,18.618,0S0,18.348,0,18.348-7.664.151-26.282,2.634Z" transform="translate(19.827 -13.92) rotate(180)" fill="#eee"/>
      <path id="Path_4-2" data-name="Path 4" d="M-14.223,1.426c-.312-.414,5.906-2.99,10.075,0S0,9.929,0,9.929-4.148.082-14.223,1.426Z" transform="matrix(-0.883, 0.469, -0.469, -0.883, 53.764, -36.584)" fill="#eee"/>
      <path id="Path_4_Copy" data-name="Path 4 Copy" d="M-8.944.9c-.2-.26,3.714-1.88,6.336,0A7.082,7.082,0,0,1,0,6.244S-2.608.051-8.944.9Z" transform="matrix(-0.883, 0.469, -0.469, -0.883, 45.518, -36.055)" fill="#eee"/>
    </g>
  </g>
</svg>
