<svg xmlns="http://www.w3.org/2000/svg" width="40.77" height="24.699" viewBox="0 0 40.77 24.699">
  <g id="Group_4_Copy_11" data-name="Group 4 Copy 11" transform="translate(41.367 -0.078) rotate(180)" opacity="0.641">
    <g id="Group_3_Copy" data-name="Group 3 Copy" transform="translate(0.276 0)">
      <path id="Path_2" data-name="Path 2" d="M-6.254,24.673H-35.033s-5.7-1.517-5.7-6.947,5.7-6.806,5.7-6.806-.46-8.145,5.926-10.282C-20.365-2.287-16.794,5.8-16.794,5.8c6.663-1.832,8.784,5.124,8.784,5.124C-2.078,10.584,0,14.987,0,17.243,0,23.454-4.22,24.25-6.254,24.673Z" transform="translate(0.321 -0.103) rotate(180)" fill="#fff"/>
      <path id="Path_3" data-name="Path 3" d="M0,0S-8.984,1.522-8.744,11.029c0,.249-5.627.249-5.627,6.576A7.008,7.008,0,0,0-8.744,24.7s-5.528-2.8-3.146-8.462c1.685-4,6.594-3.425,6.594-3.425-1.564-2.268-2.513-4.02-.961-7.7S0,0,0,0Z" transform="translate(26.72 -0.078) rotate(180)" fill="#eee"/>
      <path id="Path_4" data-name="Path 4" d="M-10.842,1.087c-.238-.315,4.5-2.279,7.68,0S0,7.569,0,7.569-3.162.062-10.842,1.087Z" transform="translate(8.179 -5.742) rotate(180)" fill="#eee"/>
      <path id="Path_4-2" data-name="Path 4" d="M-5.867.588C-6,.417-3.431-.645-1.711.588A4.646,4.646,0,0,1,0,4.1S-1.711.034-5.867.588Z" transform="matrix(-0.883, 0.469, -0.469, -0.883, 21.904, -15.023)" fill="#eee"/>
      <path id="Path_4_Copy" data-name="Path 4 Copy" d="M-3.69.37a2.5,2.5,0,0,1,2.614,0A2.922,2.922,0,0,1,0,2.576,3.658,3.658,0,0,0-3.69.37Z" transform="matrix(-0.883, 0.469, -0.469, -0.883, 18.502, -14.805)" fill="#eee"/>
    </g>
  </g>
</svg>
