<svg xmlns="http://www.w3.org/2000/svg" width="280.896" height="142.238" viewBox="0 0 280.896 142.238">
  <g id="Grupo_304" data-name="Grupo 304" transform="translate(-11737.098 -7844)">
    <path id="Fill-1" d="M108.949,69.9c.225,0,.439-.005.656-.009-.329.007-.658.016-.978.027.152-.011.265-.018.322-.018m.555,16.224c-.333-.009-.625-.093.621-.085.259-.007.551-.045.828-.048.4,0,.787-.018,1.146-.012,12.472-.186,14.85-4.151,14.813-8.373-.036-4.112-2.349-6.627-13.989-6.728-.165,0-.33,0-.5.006-.433,0-.843,0-1.231-.007-.257,0-.515.006-.762.011l.483-.019c-5.388-.147-6.476-1.423-6.495-3.457s1.938-3.043,3.974-3.563c6.9-.918,8.4-3.287,8.367-6.719-.039-4.379-2.528-7.236-15.522-7.123-2.524.022-4.646.08-6.435.1L30,50.181l6.476,35.867s70.225.195,73.027.073" transform="translate(11891.081 7865.99)" fill="#e5fcfc" fill-rule="evenodd"/>
    <path id="Fill-9" d="M19.178,45.621c-.319-.011-.646-.021-.974-.028.217,0,.43.007.653.009.056,0,.169.007.32.019ZM86.368,81.162,96.484,25.046,31.971,25.1c-1.781-.016-3.894-.074-6.407-.1-12.937-.113-15.414,2.746-15.453,7.13-.03,3.436,1.457,5.807,8.33,6.726,2.027.522,3.975,1.53,3.957,3.567s-1.1,3.313-6.466,3.459c.157.007.317.014.481.019-.246-.005-.5-.008-.758-.011-.388.007-.794.009-1.226.006l-.5-.008C2.339,45.993.036,48.507,0,52.621c-.037,4.227,2.284,6.8,14.7,6.991.359-.006.746-.008,1.141-.005.276,0,.566.008.824.014,1.241-.008.95.008.618.017,5.39.236,6.457,1.524,6.439,3.565s-1.113,3.308-6.545,3.444c.492.024-12.38-.337-12.5,6.66-.072,4.292,2.394,6.731,15.331,6.844Z" transform="translate(11737.098 7854.016)" fill="#e5fcfc" fill-rule="evenodd"/>
    <g id="Service-Movistar-Play" transform="translate(11760.442 7844.434)">
      <g id="Group" transform="translate(0 66.704)" opacity="0.15">
        <g id="SVGID_1_-link">
          <path id="SVGID_1_" d="M71.425,30.822h1.38c8.626-.23,10.236-1.955,10.121-4.945,0-2.875-.23-5.52-.23-7.015,0-1.38,3.22-14.146-14.146-14.031L53.829,6.9a4.1,4.1,0,0,1-4.14-3.45A4.3,4.3,0,0,0,45.549,0L21.972.69c-5.405.115-7.821,4.025-7.706,7.015.115,4.83-.115,3.335,0,4.83,0,1.38-.69,2.3-4.485,2.53h.345C1.5,15.3-.109,17.021.006,20.011c0,2.875,1.61,4.6,9.661,4.6h1.38c3.68.115,4.485.92,4.485,2.415,0,1.38-1.15,2.07-2.53,2.415a4.981,4.981,0,0,1-.575.115c-4.485.69-5.52,2.3-5.52,4.6,0,2.99,2.415,8.511,11.386,8.4,7.245-.115,13.111-1.61,19.436-1.725,6.44-.115,10.811,0,10.811,0,2.07,0,3.8-.575,4.14,1.5a4.3,4.3,0,0,0,4.14,3.45l8.511-.46C74.3,45.2,78.556,42.9,78.556,39.908c-.115-4.83-4.83-4.255-7.015-4.255-3.8-.115-5.06-.92-5.06-2.415,0-1.38.69-2.3,4.485-2.53-.23.115-.46.115.46.115" transform="translate(0.569 0.115)" fill="#00a9e0" opacity="0.15"/>
        </g>
      </g>
      <g id="Group-2" data-name="Group" transform="translate(139.159 36.802)" opacity="0.15">
        <g id="SVGID_3_-link">
          <path id="SVGID_3_" d="M71.425,30.822h1.38c8.626-.23,10.236-1.955,10.121-4.945,0-2.875-.23-5.52-.23-7.015,0-1.38,3.22-14.146-14.146-14.031L53.829,6.9a4.1,4.1,0,0,1-4.14-3.45A4.3,4.3,0,0,0,45.549,0L21.972.69c-5.405.115-7.821,4.025-7.706,7.015.115,4.83-.115,3.335,0,4.83,0,1.38-.69,2.3-4.485,2.53h.345C1.5,15.3-.109,17.021.006,20.011c0,2.875,1.61,4.6,9.661,4.6h1.38c3.68.115,4.485.92,4.485,2.415,0,1.38-1.15,2.07-2.53,2.415a4.981,4.981,0,0,1-.575.115c-4.485.69-5.52,2.3-5.52,4.6,0,2.99,2.415,8.511,11.386,8.4,7.245-.115,13.111-1.61,19.436-1.725,6.44-.115,10.811,0,10.811,0,2.07,0,3.8-.575,4.14,1.5a4.3,4.3,0,0,0,4.14,3.45l8.511-.46C74.3,45.2,78.556,42.9,78.556,39.908c-.115-4.83-4.83-4.255-7.015-4.255-3.8-.115-5.06-.92-5.06-2.415,0-1.38.69-2.3,4.485-2.53-.23.115-.46.115.46.115" transform="translate(0.569 0.92)" fill="#00a9e0" opacity="0.15"/>
        </g>
      </g>
      <path id="Shape" d="M149.97,77.17a12.86,12.86,0,0,1-12.881,12.881H12.881A12.86,12.86,0,0,1,0,77.17V12.881A12.86,12.86,0,0,1,12.881,0H137.089A12.86,12.86,0,0,1,149.97,12.881Z" transform="translate(38.413 31.282)" fill="#fff"/>
      <path id="Shape-2" data-name="Shape" d="M152.845,107.072H14.836A14.872,14.872,0,0,1,0,92.237v-77.4A14.872,14.872,0,0,1,14.836,0h138.01a14.872,14.872,0,0,1,14.836,14.836v77.4a14.872,14.872,0,0,1-14.836,14.836ZM20.816,8.51A12.86,12.86,0,0,0,7.935,21.391v64.29A12.861,12.861,0,0,0,20.816,98.562H145.024A12.86,12.86,0,0,0,157.9,85.681V21.391A12.859,12.859,0,0,0,145.024,8.51Z" transform="translate(30.477 22.771)" fill="#ff374a"/>
      <path id="Shape-3" data-name="Shape" d="M72.455,98.561H20.7A12.86,12.86,0,0,1,7.821,85.681V21.391A12.86,12.86,0,0,1,20.7,8.511h82.46L106.037,0h-91.2A14.872,14.872,0,0,0,0,14.836v77.4a14.872,14.872,0,0,0,14.836,14.836H69.58Z" transform="translate(30.477 22.771)" fill="#c62c3b"/>
      <ellipse id="Oval" cx="79.93" cy="2.875" rx="79.93" ry="2.875" transform="translate(35.422 136.054)" fill="#0396c6"/>
      <g id="Group-3" data-name="Group" transform="translate(101.207 1.15)">
        <path id="Shape-4" data-name="Shape" d="M3.45,7.13H3.335A3.338,3.338,0,0,1,0,3.8v-.46A3.338,3.338,0,0,1,3.335,0H3.45A3.338,3.338,0,0,1,6.785,3.335V3.8A3.411,3.411,0,0,1,3.45,7.13Z" transform="translate(11.156 6.785)" fill="#ff374a"/>
        <path id="Shape-5" data-name="Shape" d="M4.112,6.971l-.46.115a1.287,1.287,0,0,1-1.61-.805L.086,1.681a1.105,1.105,0,0,1,.69-1.5l.46-.115a1.287,1.287,0,0,1,1.61.805L4.8,5.476A1.2,1.2,0,0,1,4.112,6.971Z" transform="translate(0.144 7.865)" fill="#fff"/>
        <path id="Shape-6" data-name="Shape" d="M.845,5.291h0a1.515,1.515,0,0,1-.69-2.07l1.15-2.185A1.791,1.791,0,0,1,3.49.116h0a1.515,1.515,0,0,1,.69,2.07L3.03,4.371A1.839,1.839,0,0,1,.845,5.291Z" transform="translate(23.076 8.97)" fill="#ff6173"/>
        <path id="Shape-7" data-name="Shape" d="M1.61,3.8h0A1.572,1.572,0,0,1,0,2.185V1.61A1.572,1.572,0,0,1,1.61,0h0A1.572,1.572,0,0,1,3.22,1.61v.575A1.572,1.572,0,0,1,1.61,3.8Z" transform="translate(17.711 0.46)" fill="#ff374a"/>
      </g>
    </g>
    <line id="Línea_14" data-name="Línea 14" x1="9" y1="21" transform="translate(11844.5 7848.5)" fill="none" stroke="#c62c3b" stroke-width="3"/>
    <line id="Línea_15" data-name="Línea 15" y1="18" x2="15" transform="translate(11900.5 7851.5)" fill="none" stroke="#ff374a" stroke-width="3"/>
    <circle id="Elipse_15" data-name="Elipse 15" cx="5" cy="5" r="5" transform="translate(11840 7844)" fill="#c62c3b"/>
    <circle id="Elipse_16" data-name="Elipse 16" cx="5" cy="5" r="5" transform="translate(11911 7846)" fill="#ff374a"/>
    <path id="Fill-43" d="M87.957,84.214c3.2,2.793,4.28,2.571,5.063,1.318S93.665,83,90.462,80.2s-4.281-2.571-5.063-1.318-.646,2.534,2.558,5.327" transform="translate(11876.229 7899.759)" fill="#fff" fill-rule="evenodd"/>
    <path id="Fill-47" d="M95.808,62.168c-2.841.458-4.075,1.279-3.76,3.508s1.721,2.626,4.562,2.169,4.076-1.279,3.762-3.509-1.722-2.626-4.563-2.168" transform="translate(11877.648 7896.516)" fill="#ff374a" fill-rule="evenodd"/>
    <path id="Fill-58" d="M15.462,2.2C12.259-.588,11.182-.366,10.4.887s-.645,2.534,2.558,5.327,4.281,2.571,5.063,1.318S18.665,5,15.462,2.2" transform="translate(11762.027 7862.949)" fill="#ff7c9a" fill-rule="evenodd"/>
    <path id="Fill-60" d="M7.611,25.845c2.841-.458,4.075-1.279,3.76-3.508S9.65,19.711,6.809,20.168s-4.076,1.279-3.762,3.509S4.77,26.3,7.611,25.845" transform="translate(11760.608 7867.003)" fill="#ff374a" fill-rule="evenodd"/>
    <g id="Group-14" transform="translate(11815.4 7862.597)">
      <path id="Fill-31" d="M120.346,59.9a60.174,60.174,0,1,0-60.172,59.9,60.035,60.035,0,0,0,60.172-59.9" transform="translate(0 0)" fill="rgba(237,237,237,0.51)" fill-rule="evenodd"/>
      <path id="Fill-31-2" data-name="Fill-31" d="M89.448,49.051a40.178,40.178,0,1,0-40.177,40,40.091,40.091,0,0,0,40.177-40" transform="translate(10.902 10.846)" fill="#fff" fill-rule="evenodd"/>
      <g id="Grupo_306" data-name="Grupo 306" transform="translate(-58.215 -45.149)">
        <g id="Grupo_306-2" data-name="Grupo 306" transform="translate(93.697 80.027)">
          <path id="Trazado_104" data-name="Trazado 104" d="M0,26.306A26.28,26.28,0,1,0,26.28.026,26.277,26.277,0,0,0,0,26.306" transform="translate(0 -0.026)" fill="#ffdd67" fill-rule="evenodd"/>
        </g>
        <path id="Trazado_109" data-name="Trazado 109" d="M58.017,44.133c0,7.513,10.209,7.513,10.207,0,0-5.487-5.1-10.838-5.1-10.838s-5.106,5.354-5.106,10.838" transform="translate(75.703 67.083)" fill="#65b1ef" fill-rule="evenodd"/>
        <path id="Trazado_110" data-name="Trazado 110" d="M67.066,35.281a4.38,4.38,0,1,1-4.381,4.379,4.38,4.38,0,0,1,4.381-4.379m-20.149,0a4.38,4.38,0,1,1-4.381,4.379,4.38,4.38,0,0,1,4.381-4.379" transform="translate(58.604 69.275)" fill="#664e27" fill-rule="evenodd"/>
        <path id="Trazado_111" data-name="Trazado 111" d="M52.443,31.175A12.467,12.467,0,0,1,42.2,33.92c-.505-.1-.953,1.77-.337,1.888A14.385,14.385,0,0,0,53.68,32.642c.474-.41-.85-1.806-1.237-1.467m21.492,2.612a12.463,12.463,0,0,1-10.241-2.744c-.389-.341-1.713,1.054-1.237,1.465a14.382,14.382,0,0,0,11.819,3.167c.615-.118.168-1.989-.341-1.888" transform="translate(57.529 64.537)" fill="#917524" fill-rule="evenodd"/>
        <path id="Trazado_112" data-name="Trazado 112" d="M61.956,42.806a17.868,17.868,0,0,0-14.831,2.639c-1.054.762.924,3.527,1.974,2.761a14.7,14.7,0,0,1,11.964-2.13c1.248.33,2.222-2.9.892-3.27" transform="translate(63.341 76.93)" fill="#664e27" fill-rule="evenodd"/>
      </g>
    </g>
  </g>
</svg>
