<svg xmlns="http://www.w3.org/2000/svg" xmlns:xlink="http://www.w3.org/1999/xlink" width="170.121" height="33.545" viewBox="0 0 170.121 33.545">
  <defs>
    <clipPath id="clip-path">
      <path id="Clip_2" data-name="Clip 2" d="M115.032,19.865V0H0V19.865Z" fill="none"/>
    </clipPath>
  </defs>
  <g id="Group_1" data-name="Group 1" transform="translate(-46 -24.469)">
    <g id="Movistar_Lockup_Logo" data-name="Movistar Lockup Logo" transform="translate(46 24.469)">
      <g id="Logo" transform="translate(0 0)">
        <g id="movistar" transform="translate(55.089 6.84)">
          <path id="Clip_2-2" data-name="Clip 2" d="M115.032,19.865V0H0V19.865Z" transform="translate(0 0)" fill="none"/>
          <g id="movistar-2" data-name="movistar" transform="translate(0 0)" clip-path="url(#clip-path)">
            <path id="Fill_1" data-name="Fill 1" d="M34.289,19.865h-.426a8.569,8.569,0,0,1-4.326-.919A4.933,4.933,0,0,1,27.259,15.9a15.515,15.515,0,0,1-.511-4.5,15.494,15.494,0,0,1,.511-4.5,4.933,4.933,0,0,1,2.278-3.045,8.619,8.619,0,0,1,4.326-.918h.426a8.61,8.61,0,0,1,4.324.918A4.927,4.927,0,0,1,40.888,6.9a15.473,15.473,0,0,1,.514,4.5,15.494,15.494,0,0,1-.514,4.5,4.919,4.919,0,0,1-2.275,3.045A8.566,8.566,0,0,1,34.289,19.865ZM34.03,5.959c-2.191,0-3.427.488-3.681,3.06A20.676,20.676,0,0,0,30.2,11.4a20.72,20.72,0,0,0,.148,2.381c.254,2.573,1.489,3.06,3.681,3.06h.088c2.191,0,3.427-.488,3.685-3.06a22.672,22.672,0,0,0,.147-2.381A22.569,22.569,0,0,0,37.8,9.019c-.257-2.573-1.493-3.06-3.685-3.06ZM97.8,19.861H97.01c-4.291,0-6.654-1.857-6.654-5.229v-.138a5.016,5.016,0,0,1,1.459-3.7,7.009,7.009,0,0,1,4.851-1.558h.3a17.088,17.088,0,0,1,3.438.37V9.155c0-1.429-.288-2.184-1.026-2.691a5.933,5.933,0,0,0-3.248-.6h-.143a25.064,25.064,0,0,0-3.562.327.865.865,0,0,1-.126.01.291.291,0,0,1-.224-.077.342.342,0,0,1-.072-.242V3.793c0-.283.095-.411.338-.456a23.788,23.788,0,0,1,4.026-.4h.219a10.329,10.329,0,0,1,4.1.668c2.165.95,3.13,2.648,3.13,5.508v4.675c0,2.351-.479,3.757-1.6,4.7A7.157,7.157,0,0,1,97.8,19.861Zm-.736-7.807a3.773,3.773,0,0,0-2.589.68,2.375,2.375,0,0,0-.727,1.779c0,1.577,1.153,2.446,3.245,2.446h.54a3.036,3.036,0,0,0,2.395-.8,3.71,3.71,0,0,0,.476-2.454v-1.3a12.279,12.279,0,0,0-3.052-.351ZM72.05,19.861h-.111a14.84,14.84,0,0,1-4.5-.7c-.282-.1-.332-.247-.332-.522V16.551c0-.218.089-.333.257-.333a.589.589,0,0,1,.173.031,14.253,14.253,0,0,0,4.214.706h.085c2.3,0,3.415-.633,3.415-1.935,0-1.008-.723-1.447-2.242-2-.664-.24-1.269-.465-2.088-.775A8.378,8.378,0,0,1,68.026,10.7,4.006,4.006,0,0,1,66.84,7.687v-.1a4.337,4.337,0,0,1,1.44-3.3c1.023-.907,2.593-1.348,4.8-1.348h.248a23.422,23.422,0,0,1,3.873.446c.289.064.36.147.36.423v2.14c0,.229-.089.331-.29.331a.965.965,0,0,1-.16-.017,21.848,21.848,0,0,0-3.894-.443h-.14c-2,0-2.974.538-2.974,1.646,0,.766.475,1.227,1.753,1.7l.324.121,1.843.693a9.409,9.409,0,0,1,3.414,1.871,4.158,4.158,0,0,1,1.1,2.981v.045C78.538,18.044,76.173,19.861,72.05,19.861Zm37.788-.295h-2.745c-.236,0-.337-.1-.337-.319V9a7.87,7.87,0,0,1,.5-3.182c.841-1.858,2.825-2.881,5.586-2.881h1.839a.309.309,0,0,1,.35.354v2.3c0,.239-.111.355-.338.355h-1.462c-1.927,0-2.817.625-2.977,2.091-.059.526-.087,1.364-.087,2.638v8.573C110.169,19.471,110.07,19.567,109.838,19.567Zm-22.022,0h-.728a5.982,5.982,0,0,1-4.453-1.442c-.987-1-1.428-2.454-1.428-4.724V.319c0-.223.1-.319.333-.319h2.746c.236,0,.342.1.342.319V3.248h3.021c.236,0,.342.1.342.316V5.823c0,.22-.105.318-.342.318H84.628v7.071a3.89,3.89,0,0,0,.654,2.642,2.829,2.829,0,0,0,2.169.706h.365a.324.324,0,0,1,.363.34v2.328A.32.32,0,0,1,87.816,19.567Zm-24.554,0H60.518c-.237,0-.338-.1-.338-.319l0-15.679c0-.223.1-.319.339-.319h2.745c.236,0,.337.1.337.319l0,15.679C63.6,19.468,63.5,19.567,63.262,19.567Zm-11.453,0H48.836a.507.507,0,0,1-.522-.272c-2.909-5.537-4.671-9.865-5.071-15.6a.453.453,0,0,1,.073-.355.37.37,0,0,1,.281-.09h2.79c.283,0,.44.057.46.357a31.709,31.709,0,0,0,1.2,6.7,36.962,36.962,0,0,0,2.272,5.942,37.131,37.131,0,0,0,2.273-5.942A31.835,31.835,0,0,0,53.78,3.645c.019-.305.12-.4.429-.4h2.77a.422.422,0,0,1,.31.087.31.31,0,0,1,.066.238c-.15,4.265-1.857,9.551-5.073,15.71A.455.455,0,0,1,51.809,19.567Zm-28.325,0H20.771a.334.334,0,0,1-.356-.37V10.72c0-1.208-.028-2.07-.087-2.636-.156-1.421-1.192-2.112-3.167-2.112h-.226c-1.981,0-3.063.711-3.215,2.112-.06.526-.089,1.388-.089,2.636l0,8.447a.357.357,0,0,1-.35.4H10.563a.338.338,0,0,1-.358-.37V10.72c0-1.248-.029-2.11-.089-2.636C9.964,6.683,8.882,5.972,6.9,5.972H6.674c-1.976,0-3.012.691-3.168,2.112-.06.526-.089,1.388-.089,2.636l0,8.473a.336.336,0,0,1-.351.373H.352A.337.337,0,0,1,0,19.194V9.022A7.817,7.817,0,0,1,.505,5.839c.837-1.845,2.943-2.9,5.778-2.9h.852c2.256,0,4.018.584,4.834,1.6h.018c.829-1.033,2.511-1.6,4.736-1.6h.829c2.835,0,4.94,1.058,5.775,2.9a7.921,7.921,0,0,1,.506,3.183V19.167A.356.356,0,0,1,23.484,19.567Z" transform="translate(0 0)" fill="#5bc500"/>
          </g>
        </g>
        <g id="Nuestra_M" data-name="Nuestra M">
          <path id="Fill_4" data-name="Fill 4" d="M8.395,3.886C6.326,3.919,2.507,4.958.762,12.209a25.175,25.175,0,0,0-.4,10.374,40.274,40.274,0,0,0,2.379,8.456,7.563,7.563,0,0,0,.925,1.591,2.455,2.455,0,0,0,2.859.726c.648-.325,1.394-1.109,1.124-2.9a24.153,24.153,0,0,0-.717-2.834A31.68,31.68,0,0,1,5.34,21c-.1-2.482.86-2.806,1.5-2.95,1.073-.24,1.974.96,2.829,2.463,1.02,1.795,2.77,4.975,4.2,7.4a8.144,8.144,0,0,0,7.482,4.38c3.892-.164,6.76-1.676,8.237-6.433a79.56,79.56,0,0,1,3.073-8.943c1.394-3.132,3.255-4.808,4.821-4.3,1.455.476,1.817,1.923,1.835,4.049a48.962,48.962,0,0,1-.365,5.48,16.042,16.042,0,0,0-.125,2.283c.087,1.214.6,2.426,1.947,2.621A2.987,2.987,0,0,0,43.806,24.7a13.366,13.366,0,0,0,.418-2.006,36.672,36.672,0,0,0,.34-8.195,29.749,29.749,0,0,0-2.141-9.825C41.256,1.926,39.381.167,36.976.011,34.315-.16,31.26,1.637,29.657,5.124c-1.477,3.214-2.659,6.515-3.376,8.2-.727,1.708-1.8,2.761-3.438,2.937-2.008.215-3.739-1.269-5.006-3.385a48.588,48.588,0,0,0-4.467-6.536c-1.1-1.108-2.359-2.5-4.976-2.453" transform="translate(0 0)" fill="#5bc500"/>
        </g>
      </g>
    </g>
  </g>
</svg>
