<svg id="Logo" xmlns="http://www.w3.org/2000/svg" xmlns:xlink="http://www.w3.org/1999/xlink" width="207.62" height="25.653" viewBox="0 0 207.62 25.653">
  <defs>
    <clipPath id="clip-path">
      <path id="Clip_2" data-name="Clip 2" d="M207.62,25.653H0V0H207.62Z" fill="none"/>
    </clipPath>
  </defs>
  <path id="Clip_2-2" data-name="Clip 2" d="M207.62,25.653H0V0H207.62Z" fill="none"/>
  <g id="Logo-2" data-name="Logo" clip-path="url(#clip-path)">
    <path id="Fill_1" data-name="Fill 1" d="M160.666,25.653c-24.136,0-46.955-.31-46.955-.638s22.381-.625,46.955-.625,46.954.3,46.954.625S184.8,25.653,160.666,25.653Zm-36.2-5.691c-.165,0-.287,0-.384-.012l-.146-.259c.817-.464,1.5-1.689,2.616-4.685.823-2.312,2.954-7.754,3.429-8.837a9.141,9.141,0,0,1,4-4.511h-2.77c-5.111,0-8.21,1.772-8.288,4.741a2.781,2.781,0,0,0,.279,1.311l-.151.131a2.3,2.3,0,0,1-1.672-.931,2.516,2.516,0,0,1-.4-1.994,4.893,4.893,0,0,1,2.9-3.3A15.435,15.435,0,0,1,130.555.357H140.5A7.452,7.452,0,0,0,143.258,0l.155.193c-.671.83-1.579,1.394-3.829,1.456-.2,0-2,0-4.024.009-1.458,1-2.269,3.028-4.123,7.918-.16.426-.377,1.029-.585,1.611l-.023.067-.044.124,0,.012-.061.17-.04.11-.008.022,0,.013-.015.042-.012.034-.03.087-.025.068c-.538,1.5-1.207,3.358-1.754,4.68C127.9,18.9,126.512,19.962,124.464,19.962Zm26.43-.034h0c-.088,0-.182,0-.317-.009l-.105-.19a7.178,7.178,0,0,0,1.925-3.233c.015-.04.027-.071.04-.1l.008-.021.028-.071.053-.13c.2-.466.521-1.334.807-2.1l.005-.014.016-.045.181-.485c-1.892,1.983-3.842,3.014-5.794,3.068-.054,0-.108,0-.16,0a2.605,2.605,0,0,1-1.927-.686,2.67,2.67,0,0,1-.681-1.96,10.051,10.051,0,0,1,2.8-6.243,6.992,6.992,0,0,1,4.507-2.285h.043c1.055.014,1.585.447,1.576,1.287a4.239,4.239,0,0,1-1.376,2.625,16.628,16.628,0,0,1-4.662,3.188,6.089,6.089,0,0,0-.213,1.539c.006.812.362,1.207,1.088,1.207h.068c1.611,0,3.695-1.477,5.574-3.952.564-1.529,1.313-3.537,1.676-4.422h-.073a3.986,3.986,0,0,0-1.312.159l-.1-.219a3.153,3.153,0,0,1,1.926-.965,9.718,9.718,0,0,1,4.192-4.686A9.676,9.676,0,0,1,165.17.231h.1a4.415,4.415,0,0,1,3.081.872,1.291,1.291,0,0,1,.393.953c-.009.778-1.017,1.858-2.294,2.458l-.169-.17a2.346,2.346,0,0,0,.741-1.966c-.087-.853-1.055-1.4-2.468-1.4-.061,0-.124,0-.187,0-2.28.1-4.032,1.673-5.355,4.811h4.546l.183,0a13.948,13.948,0,0,0,1.853-.117l-.263.694c-.025.008-.052.016-.082.024l-.012,0L165.2,6.4l-.02,0-.057.015-.012,0-.023.006c-.073.018-.152.038-.231.063-2.084.69-4.193,4.989-4.187,7.575,0,.623.106,1.26.892,1.26a2.262,2.262,0,0,0,1.466-.845,11.2,11.2,0,0,0,2.63-7.259c-.02-.239.207-.355.867-.444,1.083-.229,2.073-.484,2.869-.689l.1-.026.145-.039a8.554,8.554,0,0,1,1.685-.341c.721,0,1.035.244,1.049.816a10.526,10.526,0,0,1-1.1,3.368l.041.009c1.246-1.933,3.176-4.238,5.291-4.238h.013c.892.008,1.455.428,1.505,1.124.064.973-.724,2.557-1.419,3.954l-.023.048-.05.1c-.15.3-.28.564-.4.823l-.019.041c-.474,1.019-1.583,3.4-1.558,4.81a2.472,2.472,0,0,0,.183,1.127l-.267.15a2.45,2.45,0,0,1-2.036-2.545c-.028-1.317,1.014-3.454,1.852-5.172l0-.011a11.743,11.743,0,0,0,1-2.354.43.43,0,0,0-.026-.377.33.33,0,0,0-.277-.105c-.823.007-2.929,2.626-3.947,4.388-.678,1.2-1.223,2.333-1.977,3.9l-.019.04-.035.074,0,.011-.12.248-.1.218,0,.012-.011.021-.042.088-.088.183h-2.3c0-.02.147-.373.377-.924l.021-.05.029-.069c.6-1.439,1.994-4.807,2.869-7.247.107-.279.26-.783.089-1.031a.342.342,0,0,0-.3-.136.714.714,0,0,0-.1.007c-.2.031-.528.087-.852.144l-.165.028-.055.009-.158.028-.009,0-.468.082a10.922,10.922,0,0,1-.957,3.558c-.956,2.317-3.441,5.763-6.365,5.763a2.078,2.078,0,0,1-2.347-2.01,8.375,8.375,0,0,1,1.187-4.534,7.758,7.758,0,0,1,3.3-3.368,15.105,15.105,0,0,1-2.86.183l-.6,0h-.519c-.609,1.547-1.406,3.778-2.109,5.746l-.024.067-.007.021-.3.846-.008.022q-.228.637-.467,1.3C154.6,17.735,153.593,19.928,150.894,19.928ZM151.6,6.517c-1.422,0-3,3.031-3.542,5.126,2.444-1.426,4.033-3.225,4.046-4.587,0-.343-.178-.54-.489-.54Zm-9.441,11.305h0a2.617,2.617,0,0,1-1.993-2.7,5.611,5.611,0,0,1,.213-1.352c-1.16,1.271-3.222,2.774-5.211,2.831l-.161,0a2.469,2.469,0,0,1-1.83-.649,2.723,2.723,0,0,1-.665-2,10.111,10.111,0,0,1,2.8-6.243,6.962,6.962,0,0,1,4.507-2.285h.043a1.751,1.751,0,0,1,1.267.412,1.179,1.179,0,0,1,.3.875,4.167,4.167,0,0,1-1.371,2.625,16.579,16.579,0,0,1-4.66,3.188,6.99,6.99,0,0,0-.214,1.539,1.3,1.3,0,0,0,.277.968.91.91,0,0,0,.676.239h.065c1.754,0,3.76-2,5.051-3.869.11-.221.21-.446.307-.664.059-.132.115-.259.173-.384,1.326-3.039,2.424-5.467,3.561-7.873a1.015,1.015,0,0,1,.681-.588l2.229-.42c-.455,1.2-1.2,2.841-2,4.576-.831,1.819-1.773,3.879-2.522,5.761a16.6,16.6,0,0,0-1.38,4.722,2.964,2.964,0,0,0,.119,1.167l-.264.123ZM139.154,6.517c-1.439,0-3.007,3.031-3.541,5.126,2.443-1.443,4.024-3.243,4.024-4.587,0-.246-.081-.54-.468-.54Zm58.418,11.3h0a2.206,2.206,0,0,1-1.9-2.349,8.719,8.719,0,0,1,.273-1.623l-.042-.023c-1.246,1.772-2.833,2.83-4.244,2.83a1.746,1.746,0,0,1-1.868-1.964v-.35a6.573,6.573,0,0,1-4.4,2.325c-.053,0-.1,0-.156,0a2.217,2.217,0,0,1-2.449-1.832,5.693,5.693,0,0,1-3.646,1.81h-.1a1.887,1.887,0,0,1-1.326-.432,1.545,1.545,0,0,1-.452-1.171,8.242,8.242,0,0,1,.666-2.588c.562-1.381,1.436-3.215,2.139-4.688l.006-.014.218-.457.12-.252.008-.018.141-.3a1.053,1.053,0,0,1,.7-.572c.292-.089,2.377-.437,2.4-.44-1.6,3.318-2.584,5.464-3.274,7.177a6.4,6.4,0,0,0-.488,1.768.5.5,0,0,0,.551.522h.031a3.988,3.988,0,0,0,2.292-1.577,10.951,10.951,0,0,1,2.84-5.835A6.539,6.539,0,0,1,190.16,5.54h.071c1.424,0,2.146.4,2.146,1.194-.007.962-1.26,1.778-2.331,2.186l-.212-.188a2.453,2.453,0,0,0,.825-1.62c0-.432-.224-.633-.7-.633-1.774.012-4.436,4.518-4.45,7.534a1.321,1.321,0,0,0,.295.966.862.862,0,0,0,.64.242h.027a4.974,4.974,0,0,0,2.954-1.69,8.321,8.321,0,0,0,.752-.882,15.9,15.9,0,0,1,1.054-2.192c1.812-3.2,4.356-4.82,7.561-4.82.113,0,.235,0,.339.006a3.84,3.84,0,0,1,2.035.54,59.809,59.809,0,0,0-2.921,7.3c-.247.849-.8,3.263-.4,4.224l-.272.109Zm.543-11.234a2.8,2.8,0,0,0-1.2.287c-2.236,1.044-4.493,5.566-4.535,7.6a.617.617,0,0,0,.144.458.46.46,0,0,0,.339.125,1.028,1.028,0,0,0,.267-.041c1.421-.339,2.931-2.767,3.871-4.927.506-1.174,1.133-2.466,1.435-3.087l.009-.019.008-.016.069-.143c.039-.078.069-.142.09-.186A2.433,2.433,0,0,0,198.116,6.581ZM74.865,16.649c-3,0-4.458-1.384-4.458-4.232a8.1,8.1,0,0,1,1.88-5.325,5.135,5.135,0,0,1,3.96-1.549,9.507,9.507,0,0,1,3.02.526L78.656,7.8a8.114,8.114,0,0,0-2.208-.37A2.756,2.756,0,0,0,73.9,8.781a6.945,6.945,0,0,0-.954,3.507A2.844,2.844,0,0,0,73.4,14.05a2.272,2.272,0,0,0,1.995.709,12.328,12.328,0,0,0,2.152-.212l-.057,1.775A10.35,10.35,0,0,1,74.865,16.649Zm-70.8,0a4.482,4.482,0,0,1-3.006-.908A3.131,3.131,0,0,1,0,13.128a9.318,9.318,0,0,1,.185-1.719L1.2,5.756H3.59L2.479,12.034A6.863,6.863,0,0,0,2.365,13.1a1.783,1.783,0,0,0,.328,1.123,1.76,1.76,0,0,0,1.468.568,2.182,2.182,0,0,0,1.7-.653,3.845,3.845,0,0,0,.755-1.946L7.75,5.756H9.944L8.676,12.915a4.4,4.4,0,0,1-1.439,2.755A4.762,4.762,0,0,1,4.061,16.649Zm77.2-.212h-2.45l5.47-10.68h2.693L88.97,16.435H86.463l-.427-2.684H82.56l-1.3,2.684Zm3.931-8.167-1.765,3.72h2.32l-.526-3.72h-.029ZM62.471,16.437h-2.45L61.9,5.756h3.648a4.321,4.321,0,0,1,2.834.782A2.871,2.871,0,0,1,69.3,8.781a3.507,3.507,0,0,1-.585,2,4.346,4.346,0,0,1-1.922,1.378l1.666,4.272-2.621,0L64.58,12.559H63.141l-.67,3.877Zm1.553-8.919-.57,3.28h.94a2.586,2.586,0,0,0,1.9-.554,1.975,1.975,0,0,0,.583-1.42A1.306,1.306,0,0,0,66.56,7.9a1.831,1.831,0,0,0-1.311-.383H64.025Zm-13.25,8.919h-2.45L53.8,5.756h2.692l1.994,10.679H55.975l-.427-2.684H52.071l-1.3,2.684Zm3.931-8.167-1.765,3.72h2.32l-.526-3.72h-.029Zm-16.5,8.167H36.158l1.88-10.68h1.88l2.295,5.894,4.5-5.894h2.009l-1.88,10.679H44.606L45.689,10.2,42.8,13.993H40.916L39.349,10l-1.14,6.433Zm-14.716,0h-2.45l5.471-10.68H29.2l2,10.679H28.693l-.427-2.684H24.789l-1.3,2.684Zm3.932-8.167-1.767,3.72h2.32l-.526-3.72h-.028ZM12.693,16.437H10.543l1.88-10.68H14.19l3.875,6.988L19.3,5.756h2.151l-1.9,10.679H17.637L13.862,9.79l-1.168,6.646Zm99.456,0h-7.323l1.88-10.68h7.237l-.5,1.762h-4.616l-.441,2.584h3.675l-.327,1.832H108.06l-.471,2.742h4.844l-.284,1.76Zm-14.9,0H93.928l1.88-10.68h3.177c1.906,0,3.21.395,3.988,1.207a4.082,4.082,0,0,1,.94,2.969,7.025,7.025,0,0,1-1.765,4.913C101.043,15.96,99.577,16.436,97.247,16.436Zm.684-8.9-1.24,7.129H97.5a3.083,3.083,0,0,0,2.892-1.322,6.042,6.042,0,0,0,.983-3.366,2.6,2.6,0,0,0-.513-1.8,2.409,2.409,0,0,0-1.937-.639h-1ZM183.7,3.967h-.018a.884.884,0,0,1-.7-.314,1.144,1.144,0,0,1-.2-.948A1.617,1.617,0,0,1,184.211,1.4h.028a.878.878,0,0,1,.7.321,1.124,1.124,0,0,1,.182.946A1.626,1.626,0,0,1,183.7,3.967Z" transform="translate(0 -0.651)" fill="#50535a"/>
  </g>
</svg>
