<svg xmlns="http://www.w3.org/2000/svg" width="56.924" height="42.015" viewBox="0 0 56.924 42.015">
  <path id="Logo" d="M.971,15.292A30.987,30.987,0,0,0,.457,28.285,49.78,49.78,0,0,0,3.49,38.876a9.486,9.486,0,0,0,1.179,1.993,3.17,3.17,0,0,0,3.646.909c.826-.407,1.776-1.389,1.432-3.632A29.686,29.686,0,0,0,8.831,34.6C8,31.893,6.9,28.631,6.806,26.307c-.128-3.108,1.1-3.515,1.911-3.694,1.368-.3,2.516,1.2,3.606,3.085,1.3,2.248,3.53,6.231,5.349,9.274a10.406,10.406,0,0,0,9.538,5.485c4.961-.205,8.617-2.1,10.5-8.057a98.685,98.685,0,0,1,3.916-11.2c1.778-3.923,4.149-6.023,6.146-5.382,1.854.6,2.316,2.408,2.339,5.072a60.2,60.2,0,0,1-.465,6.863,19.729,19.729,0,0,0-.159,2.86c.112,1.52.77,3.039,2.482,3.282,1.824.259,3.288-1.2,3.872-2.96a16.416,16.416,0,0,0,.534-2.512,45.2,45.2,0,0,0,.434-10.264A36.739,36.739,0,0,0,54.08,5.851C52.592,2.413,50.2.209,47.136.014c-3.393-.215-7.287,2.036-9.329,6.4-1.883,4.027-3.389,8.16-4.3,10.269-.927,2.14-2.289,3.458-4.383,3.678-2.561.269-4.766-1.59-6.382-4.239-1.409-2.31-4.2-6.709-5.694-8.187-1.4-1.388-3.006-3.126-6.343-3.073C8.064,4.909,3.195,6.209.971,15.292Z" transform="translate(0)" fill="#5bc500"/>
</svg>
